# xmcd
#
# Track frame offsets: 
#        150
#        16982
#        32940
#        47966
#        67854
#        84035
#        105746
#        125126
#        142683
#        158164
#        176769
#        196974
#        213348
#        231967
#
# Disc length: 3337 seconds
#
# Revision: 0
# Processed by: cddbd v1.5.2PL0 Copyright (c) Steve Scherf et al.
# Submitted via: ExactAudioCopy v1.1
#
DISCID=b90d070e
DTITLE=หนุ่มสกล - รวมฮิตหนุ่มสกล
DYEAR=2001
DGENRE=Country
TTITLE0=รักเธอที่สุดในโลก
TTITLE1=ดอกไม้ให้คุณ
TTITLE2=จุดหมายของเธอ
TTITLE3=คว้าได้เลย
TTITLE4=รางวัลแด่คนช่างฝัน
TTITLE5=มดเบื่อ
TTITLE6=สาวลานหิน
TTITLE7=ตรงเส้นขอบฟ้า
TTITLE8=กำลังใจ
TTITLE9=สาวดวงใจ
TTITLE10=รักคงเดิม
TTITLE11=หนุ่มยอ
TTITLE12=ผู้ชายง่ายๆ
TTITLE13=คนข้างบ้าน
EXTD=
EXTT0=
EXTT1=
EXTT2=
EXTT3=
EXTT4=
EXTT5=
EXTT6=
EXTT7=
EXTT8=
EXTT9=
EXTT10=
EXTT11=
EXTT12=
EXTT13=
PLAYORDER=
